<?xml version="1.0" encoding="UTF-8" standalone="no" ?>
<!DOCTYPE svg PUBLIC "-//W3C//DTD SVG 1.1//EN" "http://www.w3.org/Graphics/SVG/1.1/DTD/svg11.dtd">
<svg xmlns="http://www.w3.org/2000/svg" xmlns:xlink="http://www.w3.org/1999/xlink" version="1.1" width="1080" height="1080" viewBox="0 0 1080 1080" xml:space="preserve">
<desc>Created with Fabric.js 5.2.4</desc>
<defs>
</defs>
<g transform="matrix(1 0 0 1 540 540)" id="0f20d409-c9fb-49d5-a9a6-a47e13b225d5"  >
<rect style="stroke: none; stroke-width: 1; stroke-dasharray: none; stroke-linecap: butt; stroke-dashoffset: 0; stroke-linejoin: miter; stroke-miterlimit: 4; fill: rgb(255,255,255); fill-rule: nonzero; opacity: 1; visibility: hidden;" vector-effect="non-scaling-stroke"  x="-540" y="-540" rx="0" ry="0" width="1080" height="1080" />
</g>
<g transform="matrix(1 0 0 1 540 540)" id="76814dfc-0242-4292-990a-c101d1de8bdd"  >
</g>
<g transform="matrix(13.11 0 0 13.12 540 540)" id="id-D6z1nYkh5"  >
<path style="stroke: none; stroke-width: 1; stroke-dasharray: none; stroke-linecap: butt; stroke-dashoffset: 0; stroke-linejoin: miter; stroke-miterlimit: 4; fill: rgb(239,239,239); fill-rule: nonzero; opacity: 1;" vector-effect="non-scaling-stroke"  transform=" translate(-43.18, 14.76)" d="M 9.24 -0.76 L 9.24 -0.76 L 9.24 0.36 Q 6.4 0.36 4.4 -1.54 Q 2.4 -3.44 2.4 -6.4 L 2.4 -6.4 L 2.4 -30 L 3.68 -30 L 3.68 -6.4 Q 3.68 -3.96 5.3 -2.36 Q 6.92 -0.76 9.24 -0.76 Z M 19.84 0.48 L 19.84 0.48 L 19.48 0.48 Q 15.68 0.48 12.86 -2.38 Q 10.04 -5.24 10.04 -9.04 Q 10.04 -12.84 12.84 -15.62 Q 15.64 -18.4 19.76 -18.4 Q 23.88 -18.4 26.84 -15.12 L 26.84 -15.12 L 14.28 -2.72 Q 16.88 -0.64 19.28 -0.64 Q 21.68 -0.64 23.58 -1.74 Q 25.48 -2.84 26.72 -4.68 L 26.72 -4.68 L 26.72 -2.64 Q 23.88 0.48 19.84 0.48 Z M 19.42 -17.28 Q 16.24 -17.28 13.78 -14.82 Q 11.32 -12.36 11.32 -9.16 Q 11.32 -5.96 13.44 -3.56 L 13.44 -3.56 L 25.08 -15.12 Q 22.6 -17.28 19.42 -17.28 Z M 31.92 -10.48 L 31.92 0 L 30.64 0 L 30.64 -18 L 31.92 -18 L 31.92 -14.36 Q 33.96 -18.44 38.88 -18.44 L 38.88 -18.44 Q 42.24 -18.44 44.52 -16.12 Q 46.8 -13.8 46.8 -10.48 L 46.8 -10.48 L 46.8 0 L 45.52 0 L 45.52 -10.48 Q 45.52 -13.24 43.58 -15.28 Q 41.64 -17.32 38.88 -17.32 Q 36.12 -17.32 34.02 -15.28 Q 31.92 -13.24 31.92 -10.48 L 31.92 -10.48 Z M 59.96 0.44 Q 56.12 0.44 53.36 -2.42 Q 50.6 -5.28 50.6 -9.08 Q 50.6 -12.88 53.4 -15.66 Q 56.2 -18.44 60.14 -18.44 Q 64.08 -18.44 66.86 -15.66 Q 69.64 -12.88 69.64 -9.06 Q 69.64 -5.24 66.92 -2.4 Q 64.2 0.44 60.32 0.44 L 60.32 0.44 L 59.96 0.44 Z M 68.36 -8.98 Q 68.36 -12.36 65.94 -14.84 Q 63.52 -17.32 60.16 -17.32 Q 56.8 -17.32 54.34 -14.82 Q 51.88 -12.32 51.88 -8.96 Q 51.88 -5.6 54.34 -3.14 Q 56.8 -0.68 60.18 -0.68 Q 63.56 -0.68 65.96 -3.14 Q 68.36 -5.6 68.36 -8.98 Z M 83.96 -15.56 Q 82.2 -17.32 80.08 -17.32 Q 77.96 -17.32 76.34 -15.72 Q 74.72 -14.12 74.72 -12 L 74.72 -12 L 74.72 0 L 73.44 0 L 73.44 -18 L 74.72 -18 L 74.72 -15.32 Q 75.44 -16.68 76.96 -17.56 Q 78.48 -18.44 80.36 -18.44 Q 82.24 -18.44 83.96 -17.16 L 83.96 -17.16 L 83.96 -15.56 Z" stroke-linecap="round" />
</g>
</svg>